C:\GBW_MyPrograms\KinderuniversiteitApp\Resultaten\Ellis\Smurf\Smurf_v4.mot
version=1
nRows=19
nColumns=29
inDegrees=yes
endheader
                time	         pelvis_tilt	           pelvis_tx	           pelvis_ty	       hip_flexion_l	       hip_flexion_r	        knee_angle_l	        knee_angle_r	       ankle_angle_l	       ankle_angle_r	    lumbar_extension	hamstrings_r/activation	bifemsh_r/activation	glut_max_r/activation	iliopsoas_r/activation	rect_fem_r/activation	  vasti_r/activation	gastroc_r/activation	 soleus_r/activation	tib_ant_r/activation	hamstrings_l/activation	bifemsh_l/activation	glut_max_l/activation	iliopsoas_l/activation	rect_fem_l/activation	  vasti_l/activation	gastroc_l/activation	 soleus_l/activation	tib_ant_l/activation	
          0.70000000	          1.12224496	          0.67332657	          0.90056791	         24.06877326	        -19.29241573	         -8.91804835	        -11.52630533	         -0.46520300	          9.88605874	         -7.24975211	          0.10000000	          0.10000000	          0.10000000	          0.10000000	          0.10000000	          0.10000000	          0.10000000	          0.10000000	          0.10000000	          0.10000000	          0.10000000	          0.10000000	          0.10000000	          0.10000000	          0.10000000	          0.10000000	          0.10000000	          0.10000000	
          0.71400000	          1.06873103	          0.68900964	          0.89978857	         24.11928381	        -19.20668577	        -10.36965359	        -13.41799843	         -1.35939275	          8.40106904	         -6.95444924	          0.10000000	          0.10000000	          0.10000000	          0.10000000	          0.10000000	          0.10000000	          0.10000000	          0.10000000	          0.10000000	          0.10000000	          0.10000000	          0.10000000	          0.10000000	          0.10000000	          0.10000000	          0.10000000	          0.10000000	          0.10000000	
          0.72800000	          1.00324248	          0.70464570	          0.89914924	         24.15611739	        -18.99231551	        -11.84523663	        -15.47385136	         -2.20528936	          6.72314242	         -6.65113257	          0.10000000	          0.10000000	          0.10000000	          0.10000000	          0.10000000	          0.10000000	          0.10000000	          0.10000000	          0.10000000	          0.10000000	          0.10000000	          0.10000000	          0.10000000	          0.10000000	          0.10000000	          0.10000000	          0.10000000	          0.10000000	
          0.74200000	          0.92460366	          0.72017048	          0.89868127	         24.17001833	        -18.61851315	        -13.32578444	        -17.72249507	         -2.96582743	          4.84275538	         -6.34303299	          0.10000000	          0.10000000	          0.10000000	          0.10000000	          0.10000000	          0.10000000	          0.10000000	          0.10000000	          0.10000000	          0.10000000	          0.10000000	          0.10000000	          0.10000000	          0.10000000	          0.10000000	          0.10000000	          0.10000000	          0.10000000	
          0.75600000	          0.83294299	          0.73553936	          0.89840549	         24.14968317	        -18.06134214	        -14.78513786	        -20.18326598	         -3.60046029	          2.77523769	         -6.03515902	          0.10000000	          0.10000000	          0.10000000	          0.10000000	          0.10000000	          0.10000000	          0.10000000	          0.10000000	          0.10000000	          0.10000000	          0.10000000	          0.10000000	          0.10000000	          0.10000000	          0.10000000	          0.10000000	          0.10000000	          0.10000000	
          0.77000000	          0.72959541	          0.75072025	          0.89833276	         24.08228405	        -17.30439577	        -16.19213340	        -22.86386961	         -4.07053863	          0.56176067	         -5.73383207	          0.10000000	          0.10000000	          0.10000000	          0.10000000	          0.10000000	          0.10000000	          0.10000000	          0.10000000	          0.10000000	          0.10000000	          0.10000000	          0.10000000	          0.10000000	          0.10000000	          0.10000000	          0.10000000	          0.10000000	          0.10000000	
          0.78400000	          0.61682399	          0.76568874	          0.89846532	         23.95443802	        -16.33885989	        -17.51351195	        -25.75911542	         -4.34464457	         -1.73297607	         -5.44597943	          0.10000000	          0.10000000	          0.10000000	          0.10000000	          0.10000000	          0.10000000	          0.10000000	          0.10000000	          0.10000000	          0.10000000	          0.10000000	          0.10000000	          0.10000000	          0.10000000	          0.10000000	          0.10000000	          0.10000000	          0.10000000	
          0.79800000	          0.49744248	          0.78042529	          0.89879863	         23.75344619	        -15.16317226	        -18.71704103	        -28.85055408	         -4.40279386	         -4.02608060	         -5.17834946	          0.10000000	          0.10000000	          0.10000000	          0.10000000	          0.10000000	          0.10000000	          0.10000000	          0.10000000	          0.10000000	          0.10000000	          0.10000000	          0.10000000	          0.10000000	          0.10000000	          0.10000000	          0.10000000	          0.10000000	          0.10000000	
          0.81200000	          0.37443052	          0.79491410	          0.89932335	         23.46852539	        -13.78246058	        -19.77435106	        -32.10689441	         -4.23886988	         -6.22421371	         -4.93679854	          0.10000000	          0.10000000	          0.10000000	          0.10000000	          0.10000000	          0.10000000	          0.10000000	          0.10000000	          0.10000000	          0.10000000	          0.10000000	          0.10000000	          0.10000000	          0.10000000	          0.10000000	          0.10000000	          0.10000000	          0.10000000	
          0.82600000	          0.25061634	          0.80914314	          0.90002735	         23.09176749	        -12.20789377	        -20.66311031	        -35.48510983	         -3.86107790	         -8.23275486	         -4.72575873	          0.10000000	          0.10000000	          0.10000000	          0.10000000	          0.10000000	          0.10000000	          0.10000000	          0.10000000	          0.10000000	          0.10000000	          0.10000000	          0.10000000	          0.10000000	          0.10000000	          0.10000000	          0.10000000	          0.10000000	          0.10000000	
          0.84000000	          0.12846637	          0.82310505	          0.90089733	         22.61866452	        -10.45601035	        -21.36834349	        -38.93217271	         -3.29056408	         -9.96512842	         -4.54794113	          0.10000000	          0.10000000	          0.10000000	          0.10000000	          0.10000000	          0.10000000	          0.10000000	          0.10000000	          0.10000000	          0.10000000	          0.10000000	          0.10000000	          0.10000000	          0.10000000	          0.10000000	          0.10000000	          0.10000000	          0.10000000	
          0.85400000	          0.00998415	          0.83679827	          0.90192001	         22.04816939	         -8.54801754	        -21.88287548	        -42.38736514	         -2.55861941	        -11.35097589	         -4.40427680	          0.10000000	          0.10000000	          0.10000000	          0.10000000	          0.10000000	          0.10000000	          0.10000000	          0.10000000	          0.10000000	          0.10000000	          0.10000000	          0.10000000	          0.10000000	          0.10000000	          0.10000000	          0.10000000	          0.10000000	          0.10000000	
          0.86800000	         -0.10330415	          0.85022807	          0.90308261	         21.38236959	         -6.50901332	        -22.20701071	        -45.78508822	         -1.70305157	        -12.34207166	         -4.29405717	          0.10000000	          0.10000000	          0.10000000	          0.10000000	          0.10000000	          0.10000000	          0.10000000	          0.10000000	          0.10000000	          0.10000000	          0.10000000	          0.10000000	          0.10000000	          0.10000000	          0.10000000	          0.10000000	          0.10000000	          0.10000000	
          0.88200000	         -0.21030870	          0.86340711	          0.90437284	         20.62590754	         -4.36708565	        -22.34763044	        -49.05802059	         -0.76433543	        -12.91532090	         -4.21521548	          0.10000000	          0.10000000	          0.10000000	          0.10000000	          0.10000000	          0.10000000	          0.10000000	          0.10000000	          0.10000000	          0.10000000	          0.10000000	          0.10000000	          0.10000000	          0.10000000	          0.10000000	          0.10000000	          0.10000000	          0.10000000	
          0.89600000	         -0.31030701	          0.87635525	          0.90577823	         19.78528816	         -2.15227986	        -22.31691161	        -52.14037978	          0.21793153	        -13.07273709	         -4.16468719	          0.10000000	          0.10000000	          0.10000000	          0.10000000	          0.10000000	          0.10000000	          0.10000000	          0.10000000	          0.10000000	          0.10000000	          0.10000000	          0.10000000	          0.10000000	          0.10000000	          0.10000000	          0.10000000	          0.10000000	          0.10000000	
          0.91000000	         -0.40286448	          0.88909859	          0.90728522	         18.86818738	          0.10452387	        -22.13085862	        -54.97096862	          1.20789426	        -12.83882825	         -4.13879552	          0.10000000	          0.10000000	          0.10000000	          0.10000000	          0.10000000	          0.10000000	          0.10000000	          0.10000000	          0.10000000	          0.10000000	          0.10000000	          0.10000000	          0.10000000	          0.10000000	          0.10000000	          0.10000000	          0.10000000	          0.10000000	
          0.92400000	         -0.48775249	          0.90166791	          0.90887814	         17.88283626	          2.37273986	        -21.80781414	        -57.49569378	          2.17542730	        -12.25619908	         -4.13362312	          0.10000000	          0.10000000	          0.10000000	          0.10000000	          0.10000000	          0.10000000	          0.10000000	          0.10000000	          0.10000000	          0.10000000	          0.10000000	          0.10000000	          0.10000000	          0.10000000	          0.10000000	          0.10000000	          0.10000000	          0.10000000	
          0.93800000	         -0.56486422	          0.91409656	          0.91053823	         16.83751593	          4.62311257	        -21.36708386	        -59.66933384	          3.09721265	        -11.38031265	         -4.14534597	          0.10000000	          0.10000000	          0.10000000	          0.10000000	          0.10000000	          0.10000000	          0.10000000	          0.10000000	          0.10000000	          0.10000000	          0.10000000	          0.10000000	          0.10000000	          0.10000000	          0.10000000	          0.10000000	          0.10000000	          0.10000000	
          0.95200000	         -0.63412418	          0.92641828	          0.91224316	         15.74016449	          6.82856891	        -20.82776982	        -61.45646369	          3.95700770	        -10.27423854	         -4.17051980	          0.10000000	          0.10000000	          0.10000000	          0.10000000	          0.10000000	          0.10000000	          0.10000000	          0.10000000	          0.10000000	          0.10000000	          0.10000000	          0.10000000	          0.10000000	          0.10000000	          0.10000000	          0.10000000	          0.10000000	          0.10000000	
